<svg width="24" height="24" viewBox="0 0 24 24" fill="none" xmlns="http://www.w3.org/2000/svg">
<rect width="24" height="24" rx="12" fill="black"/>
<path d="M14.3966 11.9979C15.2999 11.2642 16.0327 10.456 16.5866 9.58549C17.3194 8.42902 17.6901 7.2228 17.6901 6H16.4119C16.4119 6.99067 16.1051 7.9772 15.4959 8.93472C14.9761 9.7513 14.2347 10.5389 13.34 11.2311C13.0034 11.0114 12.6583 10.8041 12.3046 10.6135C14.2049 9.29948 15.2445 7.66632 15.2445 6H13.9663C13.9663 7.28497 13.0204 8.64041 11.3758 9.72642C11.2437 9.81347 11.1031 9.90052 10.9668 9.98342C10.6941 9.8715 10.4214 9.76788 10.1445 9.67668V6.00415H8.86631V9.31192C8.44025 9.21244 8.00993 9.13782 7.58813 9.08394V6.00415H6.30994V9.00104V10.2446C7.30266 10.2446 8.35504 10.4187 9.39889 10.7378C8.35078 11.144 7.26432 11.372 6.30994 11.372V12.6155C7.26432 12.6155 8.34652 12.8477 9.39889 13.2497C8.3593 13.5689 7.30692 13.743 6.30994 13.743V14.9865V17.9959H7.58813V14.9161C8.00993 14.8663 8.44025 14.7876 8.86631 14.6881V17.9959H10.1445V14.3233C10.4214 14.228 10.6941 14.1285 10.9668 14.0166C11.1074 14.0995 11.2437 14.1824 11.3758 14.2736C13.0204 15.3554 13.9663 16.715 13.9663 18H15.2445C15.2445 16.3337 14.2006 14.7005 12.3046 13.3865C12.6583 13.1959 13.0034 12.9886 13.34 12.7689C14.2347 13.457 14.9803 14.2487 15.4959 15.0653C16.1009 16.0228 16.4119 17.0093 16.4119 18H17.6901C17.6901 16.7772 17.3194 15.571 16.5866 14.4145C16.037 13.5399 15.2999 12.7316 14.3966 11.9979ZM9.59062 11.9979C10.0849 11.8238 10.5706 11.6124 11.0392 11.372C11.4397 11.5585 11.8317 11.7699 12.2152 11.9979C11.836 12.2259 11.444 12.4373 11.0392 12.6238C10.5706 12.3834 10.0806 12.1762 9.59062 11.9979Z" fill="#1DE9B6"/>
</svg>
